<svg xmlns="http://www.w3.org/2000/svg" width="70" height="53" viewBox="0 0 70 53">
  <g fill="none" fill-rule="evenodd" transform="translate(0 1.5)">
    <g fill-rule="nonzero" transform="translate(9.551 39.61)">
      <g fill="#000">
        <path d="M.0421377906.0842755812L1.44673081.0842755812C2.10688953.0842755812 2.86536976.0842755812 3.41316104.71634244 3.84858487 1.22199593 4.01713603 1.89620058 4.01713603 2.55635929 4.01713603 3.60980406 3.5817122 4.25591685 3.20247208 4.55088138 2.72491046 4.94416743 2.12093546 4.94416743 1.40459302 4.94416743L.0421377906 4.94416743.0421377906.0842755812.0421377906.0842755812zM.71634244 4.41042208L1.37650116 4.41042208C1.84001686 4.41042208 2.33162441 4.38233022 2.65468081 4.14354941 3.27270173 3.68003371 3.3007936 2.87941569 3.3007936 2.59849709 3.3007936 2.41589999 3.28674766 1.58719011 2.82323197 1.08153662 2.5142215.7444343 2.12093546.660158719 1.53100639.660158719L.71634244.660158719.71634244 4.41042208zM5.29531568 3.38506918C5.28126975 4.08736569 5.57623429 4.6070651 6.26448487 4.6070651 6.67181684 4.6070651 7.00891917 4.39637615 7.06510289 3.90476859L7.69716975 3.90476859C7.68312381 4.07331976 7.65503195 4.35423836 7.40220521 4.6070651 7.24769998 4.77561627 6.91059765 5.05653487 6.23639301 5.05653487 5.16890231 5.05653487 4.66324882 4.39637615 4.66324882 3.32888546 4.66324882 2.65468081 4.80370813 2.10688953 5.33745347 1.74169534 5.66050987 1.51696046 6.06784184 1.4888686 6.26448487 1.4888686 7.78144533 1.4888686 7.75335347 2.8372779 7.73930754 3.38506918L5.29531568 3.38506918 5.29531568 3.38506918zM7.07914882 2.93559941C7.07914882 2.61254302 7.0229651 1.93833837 6.23639301 1.93833837 5.82906103 1.93833837 5.32340754 2.19116511 5.30936161 2.93559941L7.07914882 2.93559941z"/>
        <polygon points="10.577 .084 11.518 .084 13.905 4.115 13.905 .084 14.523 .084 14.523 4.958 13.667 4.958 11.195 .829 11.195 4.958 10.577 4.958"/>
        <path d="M16.1668657 3.38506918C16.1528197 4.08736569 16.4477843 4.6070651 17.1360348 4.6070651 17.5433668 4.6070651 17.8804691 4.39637615 17.9366529 3.90476859L18.5687197 3.90476859C18.5546738 4.07331976 18.5265819 4.35423836 18.2737552 4.6070651 18.1192499 4.77561627 17.7821476 5.05653487 17.107943 5.05653487 16.0404523 5.05653487 15.5347988 4.39637615 15.5347988 3.32888546 15.5347988 2.65468081 15.6752581 2.10688953 16.2090034 1.74169534 16.5320598 1.51696046 16.9393918 1.4888686 17.1360348 1.4888686 18.6529953 1.4888686 18.6249034 2.8372779 18.6108575 3.38506918L16.1668657 3.38506918 16.1668657 3.38506918zM17.9506988 2.93559941C17.9506988 2.61254302 17.8945151 1.93833837 17.107943 1.93833837 16.700611 1.93833837 16.1949575 2.19116511 16.1809116 2.93559941L17.9506988 2.93559941zM21.8695133.0983215113L22.5015802.0983215113 22.5015802 4.42446801C22.5015802 4.49469766 22.5156261 4.7896622 22.529672 4.95821336L21.8976052 4.95821336 21.8835592 4.42446801C21.8273755 4.52278952 21.7571459 4.66324882 21.5745488 4.77561627 21.2936302 4.95821336 20.9705738 5.02844301 20.731793 5.02844301 20.2823232 5.02844301 19.2710162 4.7896622 19.2710162 3.31483953 19.2710162 2.02261395 20.0014046 1.46077674 20.8020226 1.46077674 21.532411 1.46077674 21.7711918 1.89620058 21.8554674 2.03665988L21.8554674.0983215113 21.8695133.0983215113zM21.6307325 2.27544069C21.4902732 2.10688953 21.2514924 1.93833837 20.8862982 1.93833837 19.9592668 1.93833837 19.9592668 3.06201278 19.9592668 3.28674766 19.9592668 3.89072266 20.113772 4.57897324 20.8862982 4.57897324 21.8835592 4.57897324 21.8835592 3.48339069 21.8835592 3.21651801 21.8976052 2.72491046 21.7852377 2.45803778 21.6307325 2.27544069zM24.0325866 3.38506918C24.0185406 4.08736569 24.3135052 4.6070651 25.0017557 4.6070651 25.4090877 4.6070651 25.74619 4.39637615 25.8023738 3.90476859L26.4344406 3.90476859C26.4203947 4.07331976 26.3923028 4.35423836 26.1394761 4.6070651 25.9849709 4.77561627 25.6478685 5.05653487 24.9736639 5.05653487 23.9061732 5.05653487 23.4005197 4.39637615 23.4005197 3.32888546 23.4005197 2.65468081 23.540979 2.10688953 24.0747243 1.74169534 24.3977807 1.51696046 24.8051127 1.4888686 25.0017557 1.4888686 26.5187162 1.4888686 26.4906243 2.8372779 26.4765784 3.38506918L24.0325866 3.38506918 24.0325866 3.38506918zM25.8164197 2.93559941C25.8164197 2.61254302 25.760236 1.93833837 24.9736639 1.93833837 24.5663319 1.93833837 24.0606784 2.19116511 24.0466325 2.93559941L25.8164197 2.93559941zM27.4317017 2.26139476C27.4317017 2.03665988 27.4176557 1.79787906 27.4036098 1.57314418L28.0497226 1.57314418 28.0637685 2.2333029C28.1901819 1.75574127 28.5834679 1.60123604 28.8784325 1.55909825 29.0610296 1.53100639 29.2155348 1.54505232 29.3138563 1.54505232L29.3138563 2.16307325C29.2857644 2.14902732 29.2436267 2.14902732 29.1874429 2.13498139 29.1312592 2.12093546 29.0750755 2.13498139 29.0048458 2.13498139 28.2604115 2.13498139 28.0778145 2.58445116 28.0778145 3.16033429L28.0778145 4.95821336 27.4317017 4.95821336 27.4317017 2.26139476 27.4317017 2.26139476z"/>
        <polygon points="30.03 .098 30.662 .098 30.662 4.958 30.03 4.958"/>
        <path d="M33.9490133 4.95821336C33.9068755 4.7896622 33.8928296 4.62111103 33.8928296 4.45255987 33.5838191 5.01439708 33.1343493 5.0705808 32.8534307 5.0705808 32.0809046 5.0705808 31.6595267 4.63515696 31.6595267 4.07331976 31.6595267 3.80644708 31.7578482 3.37102325 32.2494557 3.07605871 32.6146499 2.87941569 33.1483953 2.85132383 33.4293139 2.85132383 33.597865 2.85132383 33.6961865 2.85132383 33.8928296 2.86536976 33.8928296 2.44399185 33.8928296 2.26139476 33.7664162 2.12093546 33.6400028 1.9523843 33.3590842 1.89620058 33.1764871 1.89620058 32.5303743 1.89620058 32.5022825 2.33162441 32.5022825 2.47208371L31.8702156 2.47208371C31.8842615 2.30353255 31.9123534 2.06475174 32.1089964 1.82597092 32.3618232 1.54505232 32.8393848 1.46077674 33.204579 1.46077674 33.6961865 1.46077674 34.2158859 1.61528197 34.398483 1.96643023 34.5108505 2.16307325 34.5108505 2.33162441 34.5108505 2.48612964L34.4827586 4.10141162C34.4827586 4.15759534 34.4827586 4.6070651 34.5389423 4.94416743L33.9490133 4.94416743 33.9490133 4.95821336zM33.5135894 3.28674766C33.2607627 3.28674766 32.2915935 3.28674766 32.2915935 3.97499824 32.2915935 4.1856872 32.4320528 4.56492731 32.99389 4.56492731 33.3169464 4.56492731 33.5557272 4.43851394 33.7102325 4.19973313 33.8506918 3.97499824 33.8647377 3.77835522 33.8787836 3.31483953 33.7664162 3.3007936 33.6680947 3.28674766 33.5135894 3.28674766zM35.6626168 1.96643023L35.6626168 1.57314418 36.2946836 1.57314418 36.2946836 2.12093546C36.3649133 1.98047616 36.61774 1.50291453 37.3762202 1.50291453 37.6852307 1.50291453 38.5982162 1.61528197 38.5982162 2.65468081L38.5982162 4.95821336 37.9521034 4.95821336 37.9521034 2.80918604C37.9521034 2.58445116 37.9240115 2.38780813 37.7695063 2.2333029 37.6009551 2.07879767 37.3902662 2.00856802 37.1655313 2.00856802 36.7020156 2.00856802 36.2806377 2.34567034 36.2806377 3.01987499L36.2806377 4.97225929 35.6485708 4.97225929 35.6485708 1.96643023 35.6626168 1.96643023zM42.1096987.0983215113L42.7417656.0983215113 42.7417656 4.42446801C42.7417656 4.49469766 42.7558115 4.7896622 42.7698574 4.95821336L42.1377906 4.95821336 42.1237446 4.42446801C42.0675609 4.52278952 41.9973313 4.66324882 41.8147342 4.77561627 41.5338156 4.95821336 41.2107592 5.02844301 40.9719784 5.02844301 40.5225086 5.02844301 39.5112016 4.7896622 39.5112016 3.31483953 39.5112016 2.02261395 40.24159 1.46077674 41.042208 1.46077674 41.7725964 1.46077674 42.0113772 1.89620058 42.0956528 2.03665988L42.0956528.0983215113 42.1096987.0983215113zM41.8709179 2.27544069C41.7304586 2.10688953 41.4916778 1.93833837 41.1264836 1.93833837 40.1994522 1.93833837 40.1994522 3.06201278 40.1994522 3.28674766 40.1994522 3.89072266 40.3539574 4.57897324 41.1264836 4.57897324 42.1237446 4.57897324 42.1237446 3.48339069 42.1237446 3.21651801 42.1237446 2.72491046 42.0113772 2.45803778 41.8709179 2.27544069zM44.2446801 3.94690638C44.2446801 4.19973313 44.3710935 4.56492731 44.9891144 4.56492731 45.2559871 4.56492731 45.4526301 4.52278952 45.5790435 4.35423836 45.6492731 4.26996278 45.6914109 4.15759534 45.6914109 4.03118197 45.6914109 3.69407964 45.4526301 3.63789592 44.9469766 3.52552848 44.2446801 3.35697732 43.6407051 3.21651801 43.6407051 2.5142215 43.6407051 1.89620058 44.1744505 1.4888686 44.9610225 1.4888686 45.3824004 1.4888686 45.9723295 1.61528197 46.1830185 2.00856802 46.2672941 2.19116511 46.2672941 2.35971627 46.2672941 2.50017557L45.6211813 2.50017557C45.6352272 1.99452209 45.1998034 1.9523843 44.9610225 1.9523843 44.862701 1.9523843 44.272772 1.9523843 44.272772 2.44399185 44.272772 2.75300232 44.5817824 2.82323197 44.7503336 2.87941569 45.6914109 3.10415057 45.8880539 3.16033429 46.0987429 3.34293139 46.28134 3.51148255 46.3515696 3.75026336 46.3515696 3.97499824 46.3515696 4.35423836 46.1408807 4.67729475 45.8880539 4.83179999 45.5930894 5.01439708 45.2278952 5.05653487 44.876747 5.05653487 44.1884964 5.05653487 43.5423836 4.77561627 43.5564295 3.96095231L44.2446801 3.96095231 44.2446801 3.94690638zM47.6297493 3.38506918C47.6157033 4.08736569 47.9106679 4.6070651 48.5989185 4.6070651 49.0062504 4.6070651 49.3433528 4.39637615 49.3995365 3.90476859L50.0316033 3.90476859C50.0175574 4.07331976 49.9894656 4.35423836 49.7366388 4.6070651 49.5821336 4.77561627 49.2450313 5.05653487 48.5708266 5.05653487 47.5033359 5.05653487 46.9976824 4.39637615 46.9976824 3.32888546 46.9976824 2.65468081 47.1381417 2.10688953 47.6718871 1.74169534 47.9949435 1.51696046 48.4022754 1.4888686 48.5989185 1.4888686 50.1158789 1.4888686 50.0877871 2.8372779 50.0737411 3.38506918L47.6297493 3.38506918 47.6297493 3.38506918zM49.4135824 2.93559941C49.4135824 2.61254302 49.3573987 1.93833837 48.5708266 1.93833837 48.1634946 1.93833837 47.6578411 2.19116511 47.6437952 2.93559941L49.4135824 2.93559941z"/>
      </g>
      <g fill="#EE6F2A" transform="translate(28.935 6.602)">
        <path d="M1.10962849.294964534C1.05344476.294964534.983215113.294964534.927031393.294964534.674204649.294964534.674204649.421377906.674204649.547791277L.674204649.814663951 1.06749069.814663951 1.06749069 1.03939883.674204649 1.03939883.674204649 2.50017557.365194185 2.50017557.365194185 1.03939883.0280918604 1.03939883.0280918604.814663951.365194185.814663951.365194185.618020928C.365194185.379240115.379240115.294964534.435423836.210688953.505653487.0983215113.646112789.0280918604.856801742.0280918604.941077323.0280918604 1.05344476.0421377906 1.10962849.0561837208L1.10962849.294964534zM1.3484093.070229651L1.72764941.070229651 1.72764941.407331976 1.3484093.407331976 1.3484093.070229651zM1.39054709 2.50017557L1.39054709.814663951 1.69955755.814663951 1.69955755 2.50017557 1.39054709 2.50017557zM2.33162441.997261044L2.33162441.800618021 2.65468081.800618021 2.65468081 1.06749069C2.6968186.997261044 2.80918604.75848023 3.20247208.75848023 3.35697732.75848023 3.82049301.814663951 3.82049301 1.33436337L3.82049301 2.48612964 3.49743662 2.48612964 3.49743662 1.40459302C3.49743662 1.29222558 3.48339069 1.19390407 3.41316104 1.10962849 3.32888546 1.0253529 3.21651801.997261044 3.1181965.997261044 2.89346162.997261044 2.68277267 1.16581221 2.68277267 1.50291453L2.68277267 2.47208371 2.35971627 2.47208371 2.35971627.997261044 2.33162441.997261044zM5.40768312 2.50017557C5.37959126 2.41589999 5.37959126 2.33162441 5.37959126 2.24734883 5.22508603 2.52826743 5.00035115 2.55635929 4.85989185 2.55635929 4.4666058 2.55635929 4.26996278 2.33162441 4.26996278 2.05070581 4.26996278 1.91024651 4.31210057 1.69955755 4.56492731 1.55909825 4.7475244 1.46077674 5.01439708 1.44673081 5.15485638 1.44673081 5.23913196 1.44673081 5.28126975 1.44673081 5.37959126 1.46077674 5.37959126 1.25008779 5.37959126 1.16581221 5.32340754 1.08153662 5.25317789.997261044 5.12676452.969169183 5.02844301.969169183 4.70538661.969169183 4.69134068 1.19390407 4.69134068 1.25008779L4.36828429 1.25008779C4.38233022 1.16581221 4.38233022 1.03939883 4.48065173.927031393 4.6070651.786572091 4.84584592.7444343 5.02844301.7444343 5.28126975.7444343 5.5340965.828709881 5.63241801.997261044 5.68860173 1.09558255 5.68860173 1.17985814 5.68860173 1.25008779L5.6745558 2.06475174C5.6745558 2.0928436 5.6745558 2.31757848 5.70264766 2.48612964L5.40768312 2.48612964 5.40768312 2.50017557zM5.19699417 1.65741976C5.0705808 1.65741976 4.59301917 1.65741976 4.59301917 1.99452209 4.59301917 2.10688953 4.66324882 2.28948662 4.94416743 2.28948662 5.11271859 2.28948662 5.22508603 2.21925697 5.30936161 2.10688953 5.37959126 1.99452209 5.37959126 1.89620058 5.39363719 1.65741976 5.32340754 1.67146569 5.26722382 1.65741976 5.19699417 1.65741976zM6.26448487.997261044L6.26448487.800618021 6.58754126.800618021 6.58754126 1.06749069C6.62967905.997261044 6.74204649.75848023 7.13533254.75848023 7.28983777.75848023 7.75335347.814663951 7.75335347 1.33436337L7.75335347 2.48612964 7.43029707 2.48612964 7.43029707 1.40459302C7.43029707 1.29222558 7.41625114 1.19390407 7.34602149 1.10962849 7.26174591 1.0253529 7.14937847.997261044 7.05105696.997261044 6.82632207.997261044 6.61563312 1.16581221 6.61563312 1.50291453L6.61563312 2.47208371 6.29257673 2.47208371 6.29257673.997261044 6.26448487.997261044zM9.28435986 1.3484093C9.28435986 1.26413372 9.256268.997261044 8.94725753.997261044 8.5118337.997261044 8.5118337 1.50291453 8.5118337 1.6293279 8.5118337 1.98047616 8.59610928 2.30353255 8.9332116 2.30353255 9.20008428 2.30353255 9.29840579 2.10688953 9.29840579 1.93833837L9.62146218 1.93833837C9.60741625 2.27544069 9.35458951 2.54231336 8.9332116 2.54231336 8.82084416 2.54231336 8.55397149 2.5142215 8.37137439 2.31757848 8.27305288 2.20521104 8.17473137 2.02261395 8.17473137 1.67146569 8.17473137.969169183 8.61015521.75848023 8.94725753.75848023 9.05962497.75848023 9.31245172.786572091 9.46695695.969169183 9.59337032 1.10962849 9.60741625 1.25008779 9.60741625 1.3484093L9.28435986 1.3484093 9.28435986 1.3484093zM9.97261044.070229651L10.3518506.070229651 10.3518506.421377906 9.97261044.421377906 9.97261044.070229651zM10.0007023.800618021L10.3237587.800618021 10.3237587 2.48612964 10.0007023 2.48612964 10.0007023.800618021zM11.1243767 1.69955755C11.1243767 2.05070581 11.264836 2.30353255 11.6159843 2.30353255 11.8266732 2.30353255 11.9811785 2.19116511 12.0092703 1.9523843L12.3323267 1.9523843C12.3182808 2.03665988 12.3042348 2.17711918 12.1918674 2.30353255 12.1216378 2.38780813 11.9530866 2.52826743 11.6019383 2.52826743 11.068193 2.52826743 10.8153662 2.19116511 10.8153662 1.65741976 10.8153662 1.32031744 10.8855959 1.05344476 11.1524686.856801742 11.3210197.7444343 11.5176628.73038837 11.6159843.73038837 12.3744645.73038837 12.3604186 1.40459302 12.3463726 1.67146569L11.1243767 1.67146569 11.1243767 1.69955755zM12.0233162 1.4888686C12.0233162 1.32031744 11.9952244.983215113 11.6019383.983215113 11.3912494.983215113 11.1524686 1.10962849 11.1384226 1.4888686L12.0233162 1.4888686zM12.8239343 1.15176628C12.8239343 1.03939883 12.8239343.912985462 12.8098883.814663951L13.1329447.814663951 13.1329447 1.13772035C13.1891285.898939532 13.3998174.828709881 13.5402767.800618021 13.6385982.786572091 13.7088279.786572091 13.7650116.800618021L13.7650116 1.10962849C13.7509657 1.10962849 13.7228738 1.09558255 13.7088279 1.09558255 13.680736 1.09558255 13.6526441 1.09558255 13.6245523 1.09558255 13.2453122 1.09558255 13.1610366 1.32031744 13.1610366 1.60123604L13.1610366 2.50017557 12.8379802 2.50017557 12.8379802 1.15176628 12.8239343 1.15176628zM13.7790575.800618021L14.0740221.800618021 14.0740221.449469766 14.3830325.351148255 14.3830325.800618021 14.7622726.800618021 14.7622726 1.03939883 14.3830325 1.03939883 14.3830325 2.05070581C14.3830325 2.13498139 14.3830325 2.27544069 14.6077674 2.27544069 14.6779971 2.27544069 14.7341808 2.26139476 14.7622726 2.26139476L14.7622726 2.5142215C14.7060889 2.52826743 14.6077674 2.52826743 14.4954 2.52826743 14.2004354 2.52826743 14.0740221 2.44399185 14.0740221 2.16307325L14.0740221 1.03939883 13.7790575 1.03939883 13.7790575.800618021 13.7790575.800618021z"/>
        <polygon points="15.844 .801 16.195 .801 16.729 2.149 17.248 .801 17.6 .801 16.855 2.486 16.532 2.486"/>
        <path d="M19.0041435 2.50017557C18.9760517 2.41589999 18.9760517 2.33162441 18.9760517 2.24734883 18.8215465 2.52826743 18.5968116 2.55635929 18.4563523 2.55635929 18.0630662 2.55635929 17.8664232 2.33162441 17.8664232 2.05070581 17.8664232 1.91024651 17.908561 1.69955755 18.1613877 1.55909825 18.3439848 1.46077674 18.6108575 1.44673081 18.7513168 1.44673081 18.8355924 1.44673081 18.8777302 1.44673081 18.9760517 1.46077674 18.9760517 1.25008779 18.9760517 1.16581221 18.919868 1.08153662 18.8496383.997261044 18.7232249.969169183 18.6249034.969169183 18.301847.969169183 18.2878011 1.19390407 18.2878011 1.25008779L17.9647447 1.25008779C17.9787906 1.16581221 17.9787906 1.03939883 18.0771122.927031393 18.2035255.786572091 18.4423063.7444343 18.6249034.7444343 18.8777302.7444343 19.1305569.828709881 19.2288784.997261044 19.2850622 1.09558255 19.2850622 1.17985814 19.2850622 1.25008779L19.2710162 2.06475174C19.2710162 2.0928436 19.2710162 2.31757848 19.2991081 2.48612964L19.0041435 2.48612964 19.0041435 2.50017557zM18.7794087 1.65741976C18.6529953 1.65741976 18.1754337 1.65741976 18.1754337 1.99452209 18.1754337 2.10688953 18.2456633 2.28948662 18.5265819 2.28948662 18.6951331 2.28948662 18.8075005 2.21925697 18.8917761 2.10688953 18.9620058 1.99452209 18.9620058 1.89620058 18.9760517 1.65741976 18.905822 1.67146569 18.8636842 1.65741976 18.7794087 1.65741976zM20.0294965 1.99452209C20.0294965 2.12093546 20.0997261 2.30353255 20.3946906 2.30353255 20.521104 2.30353255 20.6194255 2.27544069 20.6896552 2.19116511 20.717747 2.14902732 20.7458389 2.0928436 20.7458389 2.03665988 20.7458389 1.86810872 20.6334715 1.84001686 20.3806447 1.78383313 20.0294965 1.69955755 19.7345319 1.6293279 19.7345319 1.27817965 19.7345319.969169183 20.0014046.772526161 20.3946906.772526161 20.6053796.772526161 20.9003441.828709881 20.9986656 1.03939883 21.0408034 1.13772035 21.0408034 1.20795 21.0408034 1.29222558L20.717747 1.29222558C20.731793 1.03939883 20.5070581 1.01130697 20.3946906 1.01130697 20.3525528 1.01130697 20.0575883 1.01130697 20.0575883 1.25008779 20.0575883 1.40459302 20.2120935 1.44673081 20.2963691 1.46077674 20.7598848 1.57314418 20.8722523 1.60123604 20.9705738 1.69955755 21.0688953 1.78383313 21.0969871 1.91024651 21.0969871 2.00856802 21.0969871 2.19116511 20.9986656 2.35971627 20.8722523 2.42994592 20.717747 2.5142215 20.5491959 2.54231336 20.3665988 2.54231336 20.0294965 2.54231336 19.7064401 2.40185406 19.7064401 1.99452209L20.0294965 1.99452209 20.0294965 1.99452209zM21.2795842.800618021L21.5745488.800618021 21.5745488.449469766 21.8835592.351148255 21.8835592.800618021 22.2627994.800618021 22.2627994 1.03939883 21.8835592 1.03939883 21.8835592 2.05070581C21.8835592 2.13498139 21.8835592 2.27544069 22.1082941 2.27544069 22.1785238 2.27544069 22.2347075 2.26139476 22.2627994 2.26139476L22.2627994 2.5142215C22.2066156 2.52826743 22.1082941 2.52826743 21.9959267 2.52826743 21.7009621 2.52826743 21.5745488 2.44399185 21.5745488 2.16307325L21.5745488 1.03939883 21.2795842 1.03939883 21.2795842.800618021 21.2795842.800618021zM22.9650959 2.62658895C22.9791418 2.80918604 23.0634174 2.96369127 23.3583819 2.96369127 23.7938057 2.96369127 23.8078517 2.64063488 23.8078517 2.19116511 23.6673924 2.47208371 23.3583819 2.47208371 23.2460145 2.47208371 23.0915092 2.47208371 22.8667744 2.44399185 22.7263151 2.26139476 22.5858557 2.0928436 22.529672 1.86810872 22.529672 1.64337383 22.529672 1.06749069 22.8667744.786572091 23.2881523.786572091 23.6252546.786572091 23.751668.955123253 23.8218976 1.03939883L23.8218976.800618021 24.1309081.800618021 24.1309081 1.10962849 24.1309081 2.16307325C24.1309081 2.57040523 24.1168621 2.73895639 24.0466325 2.86536976 23.9061732 3.13224243 23.5690709 3.17438022 23.344336 3.17438022 22.6701313 3.17438022 22.6420395 2.85132383 22.6279935 2.62658895L22.9650959 2.62658895zM23.6954842 2.06475174C23.7657139 1.98047616 23.8078517 1.88215465 23.8078517 1.57314418 23.8078517 1.36245523 23.7657139 1.23604186 23.6814383 1.15176628 23.5971627 1.06749069 23.4567034.997261044 23.3162441.997261044 22.9089121.997261044 22.8667744 1.40459302 22.8667744 1.61528197 22.8667744 1.86810872 22.9510499 2.21925697 23.33029 2.21925697 23.5128871 2.2333029 23.6252546 2.16307325 23.6954842 2.06475174zM25.4512255.75848023C26.1254302.75848023 26.2799354 1.29222558 26.2799354 1.64337383 26.2799354 2.13498139 25.9990168 2.55635929 25.4231336 2.55635929 24.8612964 2.55635929 24.5944238 2.16307325 24.5944238 1.67146569 24.5944238 1.25008779 24.7910668.75848023 25.4512255.75848023zM25.4231336 2.31757848C25.6619145 2.31757848 25.9287871 2.14902732 25.9287871 1.64337383 25.9287871 1.22199593 25.7321441.997261044 25.4371796.997261044 25.2405366.997261044 24.9034342 1.12367442 24.9034342 1.65741976 24.9174802 1.99452209 25.0719854 2.31757848 25.4231336 2.31757848zM26.968186 1.69955755C26.968186 2.05070581 27.1086453 2.30353255 27.4597935 2.30353255 27.6704825 2.30353255 27.8249877 2.19116511 27.8530796 1.9523843L28.176136 1.9523843C28.16209 2.03665988 28.1480441 2.17711918 28.0356767 2.30353255 27.965447 2.38780813 27.7968958 2.52826743 27.4457476 2.52826743 26.9120022 2.52826743 26.6591755 2.19116511 26.6591755 1.65741976 26.6591755 1.32031744 26.7294052 1.05344476 26.9962778.856801742 27.164829.7444343 27.361472.73038837 27.4597935.73038837 28.2182738.73038837 28.2042278 1.40459302 28.1901819 1.67146569L26.968186 1.67146569 26.968186 1.69955755zM27.8530796 1.4888686C27.8530796 1.32031744 27.8249877.983215113 27.4317017.983215113 27.2210127.983215113 26.9822319 1.10962849 26.968186 1.4888686L27.8530796 1.4888686zM29.8195098.070229651L30.1425662.070229651 30.1425662 2.2333029C30.1425662 2.27544069 30.1425662 2.41589999 30.1566121 2.50017557L29.8335557 2.50017557 29.8335557 2.2333029C29.8054639 2.27544069 29.7633261 2.34567034 29.6790505 2.41589999 29.5385912 2.5142215 29.37004 2.54231336 29.2576726 2.54231336 29.0329377 2.54231336 28.5272842 2.42994592 28.5272842 1.68551162 28.5272842 1.03939883 28.8924784.75848023 29.2857644.75848023 29.6509586.75848023 29.777372.969169183 29.8054639 1.03939883L29.8054639.070229651 29.8195098.070229651zM29.7071424 1.15176628C29.6369127 1.06749069 29.5104993.983215113 29.3419482.983215113 28.8784325.983215113 28.8784325 1.54505232 28.8784325 1.65741976 28.8784325 1.9523843 28.9627081 2.30353255 29.3419482 2.30353255 29.8476017 2.30353255 29.8476017 1.75574127 29.8476017 1.6293279 29.8335557 1.37650116 29.777372 1.25008779 29.7071424 1.15176628z"/>
      </g>
    </g>
    <g stroke-width=".5">
      <g transform="translate(43.683 2.81)">
        <circle cx="8.315" cy="7.486" r="1.194" stroke="#EE6F2A"/>
        <path stroke="#000" d="M1.09558255,34.4406208 L1.09558255,10.6749069 L0.0983215113,10.6749069 L0.0983215113,9.90238079 L2.5142215,9.90238079 L5.63241801,3.82049301 L5.64646394,2.76704825 C5.64646394,1.27817965 6.840368,0.0842755812 8.31519067,0.0842755812 C9.80405927,0.0842755812 10.9979633,1.29222558 10.9979633,2.76704825 L10.9979633,2.76704825 L10.9979633,3.82049301 L14.1161598,9.90238079 L16.5320598,9.90238079 L16.5320598,10.6749069 L15.5347988,10.6749069 L15.5347988,34.4406208"/>
        <path stroke="#000" d="M5.12676452 16.293279L2.50017557 16.293279 2.50017557 12.9082098C2.50017557 12.1778215 3.09010464 11.6019383 3.80644708 11.6019383 4.52278952 11.6019383 5.11271859 12.1918674 5.11271859 12.9082098L5.12676452 16.293279zM9.62146218 16.293279L6.99487324 16.293279 6.99487324 12.9082098C6.99487324 12.1778215 7.5848023 11.6019383 8.30114474 11.6019383 9.01748718 11.6019383 9.60741625 12.1918674 9.60741625 12.9082098L9.62146218 16.293279zM14.1161598 16.293279L11.4895709 16.293279 11.4895709 12.9082098C11.4895709 12.1778215 12.0795 11.6019383 12.7958424 11.6019383 13.5121848 11.6019383 14.1021139 12.1918674 14.1021139 12.9082098L14.1161598 16.293279zM5.12676452 24.3275511L2.50017557 24.3275511 2.50017557 20.9424819C2.50017557 20.2120935 3.09010464 19.6362104 3.80644708 19.6362104 4.52278952 19.6362104 5.11271859 20.2261395 5.11271859 20.9424819L5.12676452 24.3275511zM9.62146218 24.3275511L6.99487324 24.3275511 6.99487324 20.9424819C6.99487324 20.2120935 7.5848023 19.6362104 8.30114474 19.6362104 9.01748718 19.6362104 9.60741625 20.2261395 9.60741625 20.9424819L9.62146218 24.3275511z"/>
        <path stroke="#EE6F2A" d="M14.1161598,24.3275511 L11.4895709,24.3275511 L11.4895709,20.9424819 C11.4895709,20.2120935 12.0795,19.6362104 12.7958424,19.6362104 C13.5121848,19.6362104 14.1021139,20.2261395 14.1021139,20.9424819 L14.1161598,24.3275511 Z"/>
        <path stroke="#000" d="M5.12676452,32.3618232 L2.50017557,32.3618232 L2.50017557,28.976754 C2.50017557,28.2463656 3.09010464,27.6704825 3.80644708,27.6704825 C4.52278952,27.6704825 5.11271859,28.2604115 5.11271859,28.976754 L5.12676452,32.3618232 Z"/>
        <path stroke="#EE6F2A" d="M7.00891917,34.4265749 L7.00891917,28.9627081 C7.00891917,28.2323197 7.59884823,27.6564365 8.31519067,27.6564365 C9.03153311,27.6564365 9.62146218,28.2463656 9.62146218,28.9627081 L9.62146218,34.4265749"/>
        <path stroke="#000" d="M14.1161598,32.3618232 L11.4895709,32.3618232 L11.4895709,28.976754 C11.4895709,28.2463656 12.0795,27.6704825 12.7958424,27.6704825 C13.5121848,27.6704825 14.1021139,28.2604115 14.1021139,28.976754 L14.1161598,32.3618232 Z"/>
      </g>
      <g transform="translate(26.266)">
        <g transform="translate(2.388 28.092)">
          <rect width="2.627" height="3.104" x="4.509" y=".801" stroke="#000"/>
          <polyline stroke="#EE6F2A" points=".014 6.7 .014 0 2.641 0 2.641 6.7"/>
          <rect width="2.627" height="3.104" x="9.003" y=".801" stroke="#000"/>
        </g>
        <g transform="translate(2.388 21.63)">
          <rect width="2.627" height="3.905" x=".014" y=".014" stroke="#000"/>
          <rect width="2.627" height="3.905" x="4.509" y=".014" stroke="#EE6F2A"/>
          <rect width="2.627" height="3.905" x="9.003" y=".014" stroke="#000"/>
        </g>
        <rect width="2.627" height="3.905" x="2.402" y="14.411" stroke="#000"/>
        <rect width="2.627" height="3.905" x="6.897" y="14.411" stroke="#000"/>
        <rect width="1.798" height="3.188" x="7.318" y="7.458" stroke="#000"/>
        <rect width="2.627" height="3.905" x="11.391" y="14.411" stroke="#000"/>
        <polyline stroke="#000" points="15.422 37.25 15.422 13.484 16.434 13.484 16.434 12.698 14.903 12.698 14.903 10.254 13.596 10.254 13.596 10.254 13.596 7.81 12.29 7.81 12.29 7.81 12.29 5.351 10.984 5.351 10.984 5.351 10.984 2.908 9.678 2.908 9.678 2.908 9.678 .056 6.756 .056 6.756 2.908 6.756 2.908 5.436 2.908 5.436 5.351 5.436 5.351 4.13 5.351 4.13 7.81 4.13 7.81 2.823 7.81 2.823 10.254 2.823 10.254 1.517 10.254 1.517 12.698 0 12.698 0 13.484 .997 13.484 .997 37.25"/>
        <polyline stroke="#000" points="8.343 37.236 8.343 36.421 7.557 36.421 7.557 35.606 6.756 35.606 6.756 34.792 1.728 34.792 1.728 37.081"/>
      </g>
      <g transform="translate(8.708 2.81)">
        <path stroke="#000" d="M15.4645691,34.4406208 L15.4645691,10.6749069 L16.4618302,10.6749069 L16.4618302,9.90238079 C13.877379,9.90238079 11.7845354,6.23639301 11.7845354,2.35971627 L11.1805604,2.35971627 C10.857504,1.03939883 9.66359997,0.0561837208 8.24496102,0.0561837208 C6.82632207,0.0561837208 5.63241801,1.03939883 5.30936161,2.35971627 L4.70538661,2.35971627 C4.70538661,6.22234707 2.61254302,9.90238079 0.0280918604,9.90238079 L0.0280918604,10.6749069 L1.0253529,10.6749069 L1.0253529,34.4406208"/>
        <g transform="translate(2.388 27.67)">
          <rect width="2.627" height="4.691" x=".056" stroke="#000"/>
          <polyline stroke="#EE6F2A" points="4.551 6.756 4.551 .056 7.177 .056 7.177 6.756"/>
          <rect width="2.627" height="4.691" x="9.046" stroke="#000"/>
        </g>
        <g transform="translate(2.388 19.524)">
          <rect width="2.627" height="4.691" x=".056" y=".112" stroke="#EE6F2A"/>
          <rect width="2.627" height="4.691" x="4.551" y=".112" stroke="#000"/>
          <rect width="2.627" height="4.691" x="9.046" y=".112" stroke="#000"/>
        </g>
        <rect width="2.627" height="4.691" x="2.444" y="11.602" stroke="#000"/>
        <rect width="2.627" height="4.691" x="6.939" y="11.602" stroke="#000"/>
        <rect width="2.627" height="4.691" x="11.433" y="11.602" stroke="#000"/>
        <path stroke="#EE6F2A" d="M8.24496102,5.25317789 C7.5848023,5.25317789 7.05105696,5.78692324 7.05105696,6.44708196 L7.05105696,8.39946625 L9.43886509,8.39946625 L9.43886509,6.44708196 C9.43886509,5.78692324 8.90511974,5.25317789 8.24496102,5.25317789 Z"/>
      </g>
      <line x1=".07" x2="68.881" y1="37.236" y2="37.236" stroke="#000"/>
    </g>
  </g>
</svg>
